<mxfile host="app.diagrams.net" modified="2023-11-03T14:52:33.782Z" agent="Mozilla/5.0 (Macintosh; Intel Mac OS X 10_15_7) AppleWebKit/537.36 (KHTML, like Gecko) Chrome/119.0.0.0 Safari/537.36" version="22.0.8" etag="Q9MiX7_ODgBWBN4YVgam" type="github">
  <diagram name="Strona-1" id="crFu0H91yzhGvEoxWXEK">
    <mxGraphModel>
      <root>
        <mxCell id="0" />
        <mxCell id="1" parent="0" />
      </root>
    </mxGraphModel>
  </diagram>
</mxfile>
